<svg width="300" height="340" viewBox="0 0 300 340" xmlns="http://www.w3.org/2000/svg">
  <defs>
    <linearGradient id="ac-body" x1="0" y1="0" x2="1" y2="1">
      <stop offset="0%" stop-color="#7FD4F5"/>
      <stop offset="100%" stop-color="#2FA8E0"/>
    </linearGradient>
    <linearGradient id="ac-head" x1="0" y1="0" x2="1" y2="1">
      <stop offset="0%" stop-color="#8BDBF7"/>
      <stop offset="100%" stop-color="#39B0E5"/>
    </linearGradient>
  </defs>
  <ellipse cx="150" cy="320" rx="90" ry="14" fill="#146E9E" opacity="0.15"/>
  <rect x="95" y="150" width="110" height="130" rx="40" fill="url(#ac-body)"/>
  <circle cx="150" cy="95" r="62" fill="url(#ac-head)"/>
  <path d="M90 78 Q150 30 210 78 L208 58 Q150 20 92 58 Z" fill="#FFFFFF"/>
  <circle cx="126" cy="98" r="8" fill="#0E1330"/>
  <circle cx="174" cy="98" r="8" fill="#0E1330"/>
  <path d="M128 122 Q150 138 172 122" fill="none" stroke="#0E1330" stroke-width="5" stroke-linecap="round"/>
  <rect x="60" y="160" width="34" height="90" rx="17" fill="#2FA8E0"/>
  <rect x="206" y="160" width="34" height="90" rx="17" fill="#2FA8E0"/>
  <circle cx="77" cy="252" r="18" fill="#F4D7B2"/>
  <circle cx="223" cy="252" r="18" fill="#F4D7B2"/>
  <path d="M60 235 Q30 258 48 290 L72 285" fill="none" stroke="#F4D7B2" stroke-width="10" stroke-linecap="round"/>
  <rect x="15" y="270" width="56" height="30" rx="6" fill="#FFFFFF" stroke="#B9E4F7" stroke-width="3"/>
  <circle cx="43" cy="285" r="6" fill="#2FA8E0"/>
  <path d="M240 235 Q268 258 250 290 L226 285" fill="none" stroke="#F4D7B2" stroke-width="10" stroke-linecap="round"/>
  <rect x="230" y="272" width="14" height="34" rx="5" fill="#9AA5B5"/>
  <rect x="120" y="245" width="60" height="18" rx="6" fill="#146E9E"/>
</svg>
