<svg width="300" height="340" viewBox="0 0 300 340" xmlns="http://www.w3.org/2000/svg">
  <defs>
    <linearGradient id="c-body" x1="0" y1="0" x2="1" y2="1">
      <stop offset="0%" stop-color="#E8A15C"/>
      <stop offset="100%" stop-color="#C97A2E"/>
    </linearGradient>
    <linearGradient id="c-head" x1="0" y1="0" x2="1" y2="1">
      <stop offset="0%" stop-color="#F0B274"/>
      <stop offset="100%" stop-color="#D6893C"/>
    </linearGradient>
  </defs>
  <ellipse cx="150" cy="320" rx="90" ry="14" fill="#8A5220" opacity="0.15"/>
  <rect x="95" y="150" width="110" height="130" rx="40" fill="url(#c-body)"/>
  <circle cx="150" cy="95" r="62" fill="url(#c-head)"/>
  <path d="M90 76 Q150 34 210 76 L206 54 Q150 22 94 54 Z" fill="#5B3A20"/>
  <circle cx="126" cy="98" r="8" fill="#0E1330"/>
  <circle cx="174" cy="98" r="8" fill="#0E1330"/>
  <path d="M128 122 Q150 138 172 122" fill="none" stroke="#0E1330" stroke-width="5" stroke-linecap="round"/>
  <rect x="60" y="160" width="34" height="90" rx="17" fill="#C97A2E"/>
  <rect x="206" y="160" width="34" height="90" rx="17" fill="#C97A2E"/>
  <circle cx="77" cy="252" r="18" fill="#F4D7B2"/>
  <circle cx="223" cy="252" r="18" fill="#F4D7B2"/>
  <path d="M60 235 Q30 258 48 290 L72 285" fill="none" stroke="#F4D7B2" stroke-width="10" stroke-linecap="round"/>
  <rect x="20" y="270" width="60" height="16" rx="6" fill="#8A5220" transform="rotate(-18 50 278)"/>
  <path d="M240 235 Q268 258 250 290 L226 285" fill="none" stroke="#F4D7B2" stroke-width="10" stroke-linecap="round"/>
  <rect x="230" y="272" width="14" height="34" rx="5" fill="#9AA5B5"/>
  <rect x="120" y="245" width="60" height="18" rx="6" fill="#8A5220"/>
</svg>
