<svg width="300" height="340" viewBox="0 0 300 340" xmlns="http://www.w3.org/2000/svg">
  <defs>
    <linearGradient id="e-body" x1="0" y1="0" x2="1" y2="1">
      <stop offset="0%" stop-color="#6E8CFF"/>
      <stop offset="100%" stop-color="#3355F5"/>
    </linearGradient>
    <linearGradient id="e-head" x1="0" y1="0" x2="1" y2="1">
      <stop offset="0%" stop-color="#7C98FF"/>
      <stop offset="100%" stop-color="#4A69F5"/>
    </linearGradient>
  </defs>
  <ellipse cx="150" cy="320" rx="90" ry="14" fill="#1B34C4" opacity="0.12"/>
  <rect x="95" y="150" width="110" height="130" rx="40" fill="url(#e-body)"/>
  <circle cx="150" cy="95" r="62" fill="url(#e-head)"/>
  <path d="M92 70 Q150 20 208 70 L200 100 Q150 55 100 100 Z" fill="#FFC94A"/>
  <circle cx="126" cy="98" r="8" fill="#0E1330"/>
  <circle cx="174" cy="98" r="8" fill="#0E1330"/>
  <path d="M128 122 Q150 138 172 122" fill="none" stroke="#0E1330" stroke-width="5" stroke-linecap="round"/>
  <rect x="60" y="160" width="34" height="90" rx="17" fill="#4A69F5"/>
  <rect x="206" y="160" width="34" height="90" rx="17" fill="#4A69F5"/>
  <circle cx="77" cy="252" r="18" fill="#FFC94A"/>
  <circle cx="223" cy="252" r="18" fill="#FFC94A"/>
  <path d="M60 235 Q40 280 70 300" fill="none" stroke="#FFC94A" stroke-width="10" stroke-linecap="round"/>
  <path d="M240 235 Q262 275 232 296" fill="none" stroke="#FFC94A" stroke-width="10" stroke-linecap="round"/>
  <rect x="120" y="240" width="60" height="70" rx="14" fill="#2A46D6"/>
  <rect x="120" y="255" width="60" height="10" fill="#1B34C4"/>
  <circle cx="150" cy="260" r="5" fill="#FFC94A"/>
</svg>
