<svg width="300" height="340" viewBox="0 0 300 340" xmlns="http://www.w3.org/2000/svg">
  <defs>
    <linearGradient id="l-body" x1="0" y1="0" x2="1" y2="1">
      <stop offset="0%" stop-color="#FFB65C"/>
      <stop offset="100%" stop-color="#F08A1E"/>
    </linearGradient>
    <linearGradient id="l-head" x1="0" y1="0" x2="1" y2="1">
      <stop offset="0%" stop-color="#FFC275"/>
      <stop offset="100%" stop-color="#F6952E"/>
    </linearGradient>
  </defs>
  <ellipse cx="150" cy="320" rx="90" ry="14" fill="#9C5A0E" opacity="0.16"/>
  <rect x="95" y="150" width="110" height="130" rx="40" fill="url(#l-body)"/>
  <circle cx="150" cy="95" r="62" fill="url(#l-head)"/>
  <path d="M86 82 Q150 24 214 82 L214 62 Q150 12 86 62 Z" fill="#FFC94A"/>
  <circle cx="126" cy="98" r="8" fill="#0E1330"/>
  <circle cx="174" cy="98" r="8" fill="#0E1330"/>
  <path d="M128 122 Q150 138 172 122" fill="none" stroke="#0E1330" stroke-width="5" stroke-linecap="round"/>
  <rect x="60" y="160" width="34" height="90" rx="17" fill="#F08A1E"/>
  <rect x="206" y="160" width="34" height="90" rx="17" fill="#F08A1E"/>
  <circle cx="77" cy="252" r="18" fill="#F4D7B2"/>
  <circle cx="223" cy="252" r="18" fill="#F4D7B2"/>
  <path d="M60 235 Q34 268 58 296" fill="none" stroke="#F4D7B2" stroke-width="10" stroke-linecap="round"/>
  <path d="M240 235 Q266 268 242 296" fill="none" stroke="#F4D7B2" stroke-width="10" stroke-linecap="round"/>
  <rect x="118" y="280" width="64" height="40" rx="6" fill="#9C5A0E"/>
  <rect x="118" y="280" width="64" height="10" fill="#7A4508"/>
  <rect x="120" y="245" width="60" height="18" rx="6" fill="#9C5A0E"/>
</svg>
