<svg width="300" height="340" viewBox="0 0 300 340" xmlns="http://www.w3.org/2000/svg">
  <defs>
    <linearGradient id="p-body" x1="0" y1="0" x2="1" y2="1">
      <stop offset="0%" stop-color="#4FD1C5"/>
      <stop offset="100%" stop-color="#0EA5A0"/>
    </linearGradient>
    <linearGradient id="p-head" x1="0" y1="0" x2="1" y2="1">
      <stop offset="0%" stop-color="#5EDCD0"/>
      <stop offset="100%" stop-color="#149B92"/>
    </linearGradient>
  </defs>
  <ellipse cx="150" cy="320" rx="90" ry="14" fill="#0B6E68" opacity="0.15"/>
  <rect x="95" y="150" width="110" height="130" rx="40" fill="url(#p-body)"/>
  <circle cx="150" cy="95" r="62" fill="url(#p-head)"/>
  <path d="M90 78 Q150 40 210 78 L205 60 Q150 30 95 60 Z" fill="#2F3A4F"/>
  <circle cx="126" cy="98" r="8" fill="#0E1330"/>
  <circle cx="174" cy="98" r="8" fill="#0E1330"/>
  <path d="M128 122 Q150 138 172 122" fill="none" stroke="#0E1330" stroke-width="5" stroke-linecap="round"/>
  <rect x="60" y="160" width="34" height="90" rx="17" fill="#149B92"/>
  <rect x="206" y="160" width="34" height="90" rx="17" fill="#149B92"/>
  <circle cx="77" cy="252" r="18" fill="#F4D7B2"/>
  <circle cx="223" cy="252" r="18" fill="#F4D7B2"/>
  <path d="M60 235 Q30 260 45 290 L70 290" fill="none" stroke="#F4D7B2" stroke-width="10" stroke-linecap="round"/>
  <rect x="35" y="280" width="45" height="14" rx="7" fill="#E5533D"/>
  <rect x="20" y="270" width="18" height="34" rx="6" fill="#E5533D"/>
  <path d="M240 235 Q270 265 245 292" fill="none" stroke="#F4D7B2" stroke-width="10" stroke-linecap="round"/>
  <path d="M232 292 q10 -30 30 -20 q10 20 -10 30 Z" fill="#9AA5B5"/>
  <rect x="120" y="245" width="60" height="18" rx="6" fill="#0B6E68"/>
</svg>
